<?xml version="1.0" encoding="UTF-8"?>
<svg width="101px" height="61px" viewBox="0 0 101 61" version="1.1" xmlns="http://www.w3.org/2000/svg" xmlns:xlink="http://www.w3.org/1999/xlink">
    <!-- Generator: Sketch 58 (84663) - https://sketch.com -->
    <title>Group 22</title>
    <desc>Created with Sketch.</desc>
    <g id="Desktop" stroke="none" stroke-width="1" fill="none" fill-rule="evenodd">
        <g id="Home-page" transform="translate(-292.000000, -2435.000000)" stroke="#999c97" stroke-width="2.5">
            <g id="Body" transform="translate(0.000000, 690.000000)">
                <g id="Customer-reviews-Copy-2" transform="translate(0.000000, 1510.000000)">
                    <g id="Group-11" transform="translate(231.000000, 171.000000)">
                        <g id="-1">
                            <g id="g">
                                <g id="Group-22" transform="translate(61.000000, 65.000000)">
                                    <g id="Group-7" transform="translate(0.000000, 0.329122)">
                                        <polyline id="Stroke-1" points="95.643973 34.1575699 95.643973 57.6185149 5.15409836 57.6185149 5.15409836 33.154677"></polyline>
                                        <polyline id="Stroke-3" points="62.175217 28.1008679 34.5966249 0.413307618 0.85216972 34.1577628"></polyline>
                                        <polyline id="Stroke-5" points="99.9024108 34.0920926 78.0007715 22.331244 56.1280617 34.0920926"></polyline>
                                    </g>
                                    <polygon id="Stroke-8" points="11.5216972 52.5460945 40.442623 52.5460945 40.442623 39.9906461 11.5216972 39.9906461"></polygon>
                                    <polygon id="Stroke-9" points="21.5930569 33.5914176 32.2796528 33.5914176 32.2796528 22.0108968 21.5930569 22.0108968"></polygon>
                                    <polygon id="Stroke-10" points="37.9373192 33.5914176 48.6229508 33.5914176 48.6229508 22.0108968 37.9373192 22.0108968"></polygon>
                                    <g id="Group-21" transform="translate(30.858245, 4.186403)">
                                        <polyline id="Stroke-11" points="31.543973 53.5532305 31.543973 35.804918 59.7821601 35.804918 59.7821601 53.5532305"></polyline>
                                        <polyline id="Stroke-13" points="15.4339441 53.5532305 15.4339441 35.804918 26.7984571 35.804918 26.7984571 53.5532305"></polyline>
                                        <path d="M7.46798457,8.34734812 C7.46798457,10.2248795 5.94532305,11.7465767 4.06875603,11.7465767 C2.19026037,11.7465767 0.668563163,10.2248795 0.668563163,8.34734812 C0.668563163,6.46981678 2.19026037,4.94715526 4.06875603,4.94715526 C5.94532305,4.94715526 7.46798457,6.46981678 7.46798457,8.34734812 Z" id="Stroke-15"></path>
                                        <path d="M49.7888139,26.8714561 C49.7888139,28.3246866 48.6094503,29.5030858 47.1571842,29.5030858 C45.7039537,29.5030858 44.5245902,28.3246866 44.5245902,26.8714561 C44.5245902,25.4182257 45.7039537,24.2398264 47.1571842,24.2398264 C48.6094503,24.2398264 49.7888139,25.4182257 49.7888139,26.8714561 Z" id="Stroke-17"></path>
                                        <polyline id="Stroke-19" points="16.942623 6.93625844 16.942623 0.874541948 23.5376085 0.874541948 23.5376085 13.4280617"></polyline>
                                    </g>
                                </g>
                            </g>
                        </g>
                    </g>
                </g>
            </g>
        </g>
    </g>
</svg>
