<?xml version="1.0" encoding="UTF-8"?>
<svg width="72px" height="63px" viewBox="0 0 72 63" version="1.1" xmlns="http://www.w3.org/2000/svg" xmlns:xlink="http://www.w3.org/1999/xlink">
    <!-- Generator: Sketch 58 (84663) - https://sketch.com -->
    <title>Group 23</title>
    <desc>Created with Sketch.</desc>
    <g id="Desktop" stroke="none" stroke-width="1" fill="none" fill-rule="evenodd">
        <g id="Home-page" transform="translate(-810.000000, -2434.000000)" stroke="#559E2A" stroke-width="2.5">
            <g id="Body" transform="translate(0.000000, 690.000000)">
                <g id="Customer-reviews-Copy-2" transform="translate(0.000000, 1510.000000)">
                    <g id="Group-11" transform="translate(231.000000, 171.000000)">
                        <g id="-1">
                            <g id="g-copy-2" transform="translate(504.000000, 0.000000)">
                                <g id="Group-23" transform="translate(76.000000, 65.000000)">
                                    <polyline id="Stroke-1" points="41.4567568 37.7327838 3.50675676 37.7327838 3.50675676 21.8635946"></polyline>
                                    <path d="M62.2068649,22.5138649 L62.2068649,31.4587297" id="Stroke-3"></path>
                                    <polyline id="Stroke-4" points="40.4962703 18.5845135 22.6065405 0.624243243 0.71627027 22.5137027"></polyline>
                                    <polyline id="Stroke-6" points="64.9694595 22.4714595 50.7624324 14.8417297 36.5740541 22.4714595"></polyline>
                                    <polyline id="Stroke-7" points="7.63702703 34.2286216 7.63702703 26.0848378 26.3983784 26.0848378"></polyline>
                                    <polyline id="Stroke-8" points="14.6777838 21.9338108 14.6777838 14.4208378 30.2485946 14.4208378"></polyline>
                                    <polyline id="Stroke-9" points="30.1932973 37.5977838 30.1932973 26.0842703 37.5651892 26.0842703"></polyline>
                                    <polyline id="Stroke-10" points="31.1719459 7.35786486 31.1719459 3.42543243 35.4497838 3.42543243 35.4497838 11.5684054"></polyline>
                                    <polyline id="Stroke-11" points="40.6435135 37.7327838 40.6435135 26.0846757 58.9613514 26.0846757"></polyline>
                                    <g id="Group-22" transform="translate(42.162162, 32.434378)">
                                        <path d="M26.7774324,13.4258919 C26.7774324,20.6761622 20.8998649,26.5537297 13.6495946,26.5537297 C6.39851351,26.5537297 0.520945946,20.6761622 0.520945946,13.4258919 C0.520945946,6.17562162 6.39851351,0.298054054 13.6495946,0.298054054 C20.8998649,0.298054054 26.7774324,6.17562162 26.7774324,13.4258919 Z" id="Stroke-12"></path>
                                        <polyline id="Stroke-14" points="13.6492703 3.5892973 13.6492703 13.4260541 18.1654865 15.8333514"></polyline>
                                        <path d="M13.6492703,20.7960811 L13.6492703,24.057973" id="Stroke-16"></path>
                                        <path d="M21.4739189,13.4258919 L24.7341892,13.4258919" id="Stroke-18"></path>
                                        <path d="M2.95986486,13.4258919 L6.22013514,13.4258919" id="Stroke-20"></path>
                                    </g>
                                </g>
                            </g>
                        </g>
                    </g>
                </g>
            </g>
        </g>
    </g>
</svg>