<?xml version="1.0" encoding="UTF-8"?>
<svg width="94px" height="52px" viewBox="0 0 94 52" version="1.1" xmlns="http://www.w3.org/2000/svg" xmlns:xlink="http://www.w3.org/1999/xlink">
    <title>Opt 06_1</title>
    <g id="GET-STARTED-2" stroke="none" stroke-width="1" fill="none" fill-rule="evenodd" stroke-linecap="round" stroke-linejoin="round">
        <g id="Purchase-Copy-2" transform="translate(-257.000000, -587.000000)" stroke="#559E2A" stroke-width="1.5">
            <g id="Group-6-Copy" transform="translate(150.000000, 510.000000)">
                <g id="Group-3" transform="translate(20.000000, 48.000000)">
                    <g id="Opt-06_1" transform="translate(88.000000, 30.000000)">
                        <path d="M8.29238329,37.1109746 C8.29238329,41.9635545 6.55200655,44.1850942 4.4021294,44.1850942 C2.25225225,44.1850942 0.511875512,41.9635545 0.511875512,37.1109746 C0.511875512,32.2583948 2.25225225,26.6175266 4.4021294,26.6175266 C6.55200655,26.6175266 8.29238329,32.2583948 8.29238329,37.1109746 Z" id="Path"></path>
                        <line x1="4.4021294" y1="37.1109746" x2="4.4021294" y2="49.4881245" id="Path"></line>
                        <path d="M91.7076167,37.1109746 C91.7076167,41.9635545 89.96724,44.1850942 87.8173628,44.1850942 C85.6674857,44.1850942 83.9271089,41.9635545 83.9271089,37.1109746 C83.9271089,32.2583948 85.6674857,26.6175266 87.8173628,26.6175266 C89.96724,26.6175266 91.7076167,32.2583948 91.7076167,37.1109746 Z" id="Path"></path>
                        <line x1="87.8173628" y1="37.1109746" x2="87.8173628" y2="49.4881245" id="Path"></line>
                        <line x1="0" y1="49.4881245" x2="92.2194922" y2="49.4881245" id="Path"></line>
                        <polyline id="Path" points="68.2022932 21.9594595 68.2022932 49.4881245 24.017199 49.4881245 24.017199 21.9594595"></polyline>
                        <polyline id="Path" points="19.8095823 25.7985258 45.966421 0 72.5839476 26.6175266"></polyline>
                        <circle id="Oval" cx="46.1916462" cy="11.9164619" r="4.0028665"></circle>
                        <rect id="Rectangle" x="28.0814906" y="24.1707617" width="12.1314496" height="25.3071253"></rect>
                        <rect id="Rectangle" x="43.2022932" y="24.1707617" width="21.7956593" height="16.8714169"></rect>
                        <polyline id="Path" points="64.6294021 18.6732187 64.6294021 13.7285012 68.2022932 13.7285012 68.2022932 22.2358722"></polyline>
                        <line x1="54.0950041" y1="24.1707617" x2="54.0950041" y2="41.0524161" id="Path"></line>
                        <line x1="43.2022932" y1="32.6167076" x2="64.9979525" y2="32.6167076" id="Path"></line>
                    </g>
                </g>
            </g>
        </g>
    </g>
</svg>