<?xml version="1.0" encoding="UTF-8"?>
<svg width="80px" height="55px" viewBox="0 0 80 55" version="1.1" xmlns="http://www.w3.org/2000/svg" xmlns:xlink="http://www.w3.org/1999/xlink">
    <title>Opt 06_3</title>
    <g id="GET-STARTED-2" stroke="none" stroke-width="1" fill="none" fill-rule="evenodd" stroke-linecap="round" stroke-linejoin="round">
        <g id="Purchase-Copy-2" transform="translate(-844.000000, -583.000000)" stroke="#559E2A" stroke-width="1.5">
            <g id="Group-6-Copy" transform="translate(150.000000, 510.000000)">
                <g id="Group-3" transform="translate(20.000000, 48.000000)">
                    <g id="Group-2-Copy-3" transform="translate(580.000000, 0.000000)">
                        <g id="Opt-06_3" transform="translate(95.000000, 26.000000)">
                            <path d="M7.00328549,42.1146464 C7.00328549,46.2128653 5.53346014,48.0890541 3.71779353,48.0890541 C1.90212692,48.0890541 0.432301574,46.2128653 0.432301574,42.1146464 C0.432301574,38.0164275 1.90212692,33.2524641 3.71779353,33.2524641 C5.53346014,33.2524641 7.00328549,38.0164275 7.00328549,42.1146464 Z" id="Path"></path>
                            <line x1="3.71779353" y1="42.1146464" x2="3.71779353" y2="52.5676984" id="Path"></line>
                            <path d="M77.4511499,42.1146464 C77.4511499,46.2128653 75.9813246,48.0890541 74.165658,48.0890541 C72.3499914,48.0890541 70.880166,46.2128653 70.880166,42.1146464 C70.880166,38.0164275 72.3499914,33.2524641 74.165658,33.2524641 C75.9813246,33.2524641 77.4511499,38.0164275 77.4511499,42.1146464 Z" id="Path"></path>
                            <line x1="74.165658" y1="42.1146464" x2="74.165658" y2="52.5676984" id="Path"></line>
                            <line x1="0" y1="52.5676984" x2="77.8834515" y2="52.5676984" id="Path"></line>
                            <polyline id="Path" points="28.557842 19.0989106 65.9605741 19.0989106 69.3584645 34.3937403 39.3480892 34.3937403"></polyline>
                            <rect id="Rectangle" x="19.0990835" y="38.3190386" width="10.2455473" height="14.2486599"></rect>
                            <line x1="39.3394432" y1="34.3937403" x2="11.0582743" y2="34.3937403" id="Path"></line>
                            <polyline id="Path" points="44.7172748 25.3326993 49.4034238 20.8367629 54.0463427 25.6007263"></polyline>
                            <polyline id="Path" points="52.7667301 24.2087152 52.7667301 31.5146118 45.9968874 31.5146118 45.9968874 24.2087152"></polyline>
                            <rect id="Rectangle" x="48.1929794" y="26.897631" width="2.38630469" height="4.61698081"></rect>
                            <polyline id="Path" points="55.3432474 25.3326993 60.0380425 20.8367629 64.6809614 25.6007263"></polyline>
                            <polyline id="Path" points="63.3927027 24.2087152 63.3927027 31.5146118 56.6315061 31.5146118 56.6315061 24.2087152"></polyline>
                            <rect id="Rectangle" x="58.8189521" y="26.897631" width="2.38630469" height="4.61698081"></rect>
                            <circle id="Oval" cx="24.2261802" cy="25.0126232" r="3.38059831"></circle>
                            <rect id="Rectangle" x="41.9591907" y="38.3190386" width="20.6294311" height="9.77001556"></rect>
                            <line x1="41.9591907" y1="43.2040463" x2="62.5799758" y2="43.2040463" id="Path"></line>
                            <line x1="47.1122255" y1="38.3190386" x2="47.1122255" y2="48.0890541" id="Path"></line>
                            <line x1="52.2739063" y1="38.3190386" x2="52.2739063" y2="48.0890541" id="Path"></line>
                            <line x1="57.426941" y1="38.3190386" x2="57.426941" y2="48.0890541" id="Path"></line>
                            <polyline id="Path" points="9.5884489 29.3963341 24.2261802 14.7672488 38.8639115 29.3963341"></polyline>
                            <line x1="11.0582743" y1="27.8659865" x2="11.0582743" y2="52.5676984" id="Path"></line>
                            <line x1="37.3854401" y1="27.8659865" x2="37.3854401" y2="52.5676984" id="Path"></line>
                            <line x1="66.1162027" y1="34.3937403" x2="66.1162027" y2="52.5676984" id="Path"></line>
                            <rect id="Rectangle" x="47.7520318" y="10.3145426" width="2.82725229" height="5.82742521"></rect>
                            <polyline id="Path" points="63.6261456 14.6290852 48.9884143 0 34.3593291 14.6290852"></polyline>
                            <polyline id="Path" points="61.5165139 12.0989106 61.5165139 19.0989106 36.4689607 19.0989106 36.4689607 12.0989106"></polyline>
                        </g>
                    </g>
                </g>
            </g>
        </g>
    </g>
</svg>