<?xml version="1.0" encoding="UTF-8"?>
<svg width="108px" height="52px" viewBox="0 0 108 52" version="1.1" xmlns="http://www.w3.org/2000/svg" xmlns:xlink="http://www.w3.org/1999/xlink">
    <title>Opt 06_2</title>
    <g id="GET-STARTED-2" stroke="none" stroke-width="1" fill="none" fill-rule="evenodd" stroke-linecap="round" stroke-linejoin="round">
        <g id="Purchase-Copy-2" transform="translate(-540.000000, -586.000000)" stroke="#559E2A" stroke-width="1.5">
            <g id="Group-6-Copy" transform="translate(150.000000, 510.000000)">
                <g id="Group-3" transform="translate(20.000000, 48.000000)">
                    <g id="Group-2-Copy-2" transform="translate(290.000000, 0.000000)">
                        <g id="Opt-06_2" transform="translate(81.000000, 29.000000)">
                            <path d="M9.51150775,35.2160639 C9.51150775,40.7820573 7.51526538,43.330202 5.04931893,43.330202 C2.58337248,43.330202 0.587130108,40.7820573 0.587130108,35.2160639 C0.587130108,29.6500705 2.58337248,23.1798967 5.04931893,23.1798967 C7.51526538,23.1798967 9.51150775,29.6500705 9.51150775,35.2160639 Z" id="Path"></path>
                            <line x1="5.04931893" y1="35.2160639" x2="5.04931893" y2="49.4128699" id="Path"></line>
                            <path d="M105.19023,35.2160639 C105.19023,40.7820573 103.193988,43.330202 100.728041,43.330202 C98.2620949,43.330202 96.2658525,40.7820573 96.2658525,35.2160639 C96.2658525,29.6500705 98.2620949,23.1798967 100.728041,23.1798967 C103.193988,23.1798967 105.19023,29.6500705 105.19023,35.2160639 Z" id="Path"></path>
                            <line x1="100.728041" y1="35.2160639" x2="100.728041" y2="49.4128699" id="Path"></line>
                            <line x1="0" y1="49.4128699" x2="105.77736" y2="49.4128699" id="Path"></line>
                            <circle id="Oval" cx="34.828558" cy="17.6843589" r="4.59135744"></circle>
                            <polyline id="Path" points="11.5782057 22.7219352 34.6289338 0 58.0906529 23.4499765"></polyline>
                            <polyline id="Path" points="53.4405824 24.7299202 94.1991545 24.7299202 89.5843119 3.95725693 38.5861907 3.95725693"></polyline>
                            <polyline id="Path" points="89.5843119 24.7299202 89.5843119 49.4128699 15.0187882 49.4128699 15.0187882 19.3283232"></polyline>
                            <line x1="53.4288398" y1="49.4128699" x2="53.4288398" y2="18.7999061" id="Path"></line>
                            <rect id="Rectangle" x="27.8769375" y="30.0610615" width="13.9149836" height="19.3518084"></rect>
                            <rect id="Rectangle" x="56.9868483" y="30.0610615" width="28.0178488" height="13.2691404"></rect>
                            <line x1="56.9868483" y1="36.6956318" x2="84.9929544" y2="36.6956318" id="Path"></line>
                            <line x1="66.322217" y1="30.0610615" x2="66.322217" y2="43.330202" id="Path"></line>
                            <line x1="75.6575857" y1="30.0610615" x2="75.6575857" y2="43.330202" id="Path"></line>
                        </g>
                    </g>
                </g>
            </g>
        </g>
    </g>
</svg>