<?xml version="1.0" encoding="UTF-8"?>
<svg width="102px" height="52px" viewBox="0 0 102 52" version="1.1" xmlns="http://www.w3.org/2000/svg" xmlns:xlink="http://www.w3.org/1999/xlink">
    <!-- Generator: Sketch 58 (84663) - https://sketch.com -->
    <title>Group 25</title>
    <desc>Created with Sketch.</desc>
    <g id="Desktop" stroke="none" stroke-width="1" fill="none" fill-rule="evenodd">
        <g id="Home-page" transform="translate(-543.000000, -2434.000000)" stroke="#569C33" stroke-width="2.5">
            <g id="Body" transform="translate(0.000000, 690.000000)">
                <g id="Customer-reviews-Copy-2" transform="translate(0.000000, 1510.000000)">
                    <g id="Group-11" transform="translate(231.000000, 171.000000)">
                        <g id="-1">
                            <g id="g-copy" transform="translate(252.000000, 0.000000)">
                                <g id="Group-25" transform="translate(61.000000, 65.000000)">
                                    <path d="M31.3543269,38.0939423 C31.3543269,43.6699038 26.8341346,48.1900962 21.2581731,48.1900962 C15.6822115,48.1900962 11.1620192,43.6699038 11.1620192,38.0939423 C11.1620192,32.5179808 15.6822115,27.9977885 21.2581731,27.9977885 C26.8341346,27.9977885 31.3543269,32.5179808 31.3543269,38.0939423 Z" id="Stroke-1"></path>
                                    <path d="M90.6842308,38.0939423 C90.6842308,43.6699038 86.1640385,48.1900962 80.5880769,48.1900962 C75.0121154,48.1900962 70.4919231,43.6699038 70.4919231,38.0939423 C70.4919231,32.5179808 75.0121154,27.9977885 80.5880769,27.9977885 C86.1640385,27.9977885 90.6842308,32.5179808 90.6842308,38.0939423 Z" id="Stroke-3"></path>
                                    <path d="M31.3543269,38.0939423 L70.6024038,38.0939423" id="Stroke-5"></path>
                                    <path d="M90.6842308,38.0939423 L94.5505769,38.0939423 C94.5505769,38.0939423 97.0803846,38.0939423 98.2361538,31.81125 C99.5948077,24.4227885 100.159231,22.1958654 93.5890385,20.9131731 C87.0178846,19.6314423 70.4919231,17.7083654 70.4919231,17.7083654 C70.4919231,17.7083654 69.39,17.7083654 67.7880769,15.9458654 C66.1851923,14.1824038 57.2101923,1.84298077 57.2101923,1.84298077 C57.2101923,1.84298077 56.2486538,0.240096154 54.3255769,0.240096154 L19.8707692,0.240096154 C19.8707692,0.240096154 17.6275,0.881442308 16.0246154,2.00355769 C14.4217308,3.12471154 1.76211538,20.2727885 1.76211538,20.2727885 C1.76211538,20.2727885 -0.482115385,22.6756731 0.479423077,25.4006731 C1.44096154,28.1247115 3.20442308,34.3747115 3.20442308,34.3747115 C3.20442308,34.3747115 4.00538462,37.0997115 5.92846154,37.0997115 C7.85153846,37.0997115 11.2121154,37.09875 11.2121154,37.09875" id="Stroke-7"></path>
                                    <path d="M14.2283654,17.7081731 L59.7927885,17.7081731" id="Stroke-9"></path>
                                    <path d="M25.6621154,38.0939423 C25.6621154,40.5256731 23.69,42.4977885 21.2582692,42.4977885 C18.8265385,42.4977885 16.8544231,40.5256731 16.8544231,38.0939423 C16.8544231,35.6622115 18.8265385,33.6900962 21.2582692,33.6900962 C23.69,33.6900962 25.6621154,35.6622115 25.6621154,38.0939423 Z" id="Stroke-11"></path>
                                    <path d="M84.9920192,38.0939423 C84.9920192,40.5256731 83.0199038,42.4977885 80.5881731,42.4977885 C78.1564423,42.4977885 76.1843269,40.5256731 76.1843269,38.0939423 C76.1843269,35.6622115 78.1564423,33.6900962 80.5881731,33.6900962 C83.0199038,33.6900962 84.9920192,35.6622115 84.9920192,38.0939423 Z" id="Stroke-13"></path>
                                    <path d="M37.0108654,17.7081731 L37.0108654,2.44278846" id="Stroke-15"></path>
                                    <path d="M39.9142308,23.1896154 L44.2411538,23.1896154" id="Stroke-17"></path>
                                    <path d="M36.3892308,34.2604808 L71.4536538,34.2604808" id="Stroke-19"></path>
                                    <path d="M2.76403846,32.3374038 L10.2669231,32.3374038" id="Stroke-21"></path>
                                    <path d="M90.6842308,32.3374038 L98.1871154,32.3374038" id="Stroke-23"></path>
                                </g>
                            </g>
                        </g>
                    </g>
                </g>
            </g>
        </g>
    </g>
</svg>